<?xml version="1.0" standalone="no"?>
<!DOCTYPE svg PUBLIC "-//W3C//DTD SVG 20010904//EN"
 "http://www.w3.org/TR/2001/REC-SVG-20010904/DTD/svg10.dtd">
<svg version="1.0" xmlns="http://www.w3.org/2000/svg"
 width="60" height="60" viewBox="0 0 1024.000000 1024.000000"
 preserveAspectRatio="xMidYMid meet">

<g transform="translate(0.000000,1024.000000) scale(0.100000,-0.100000)"
fill="rgb(239 195 67)" stroke="black" stroke-width="100">
<path d="M3290 9578 c-66 -34 -90 -87 -90 -198 0 -47 -7 -143 -15 -214 -119
-1016 -870 -1850 -1866 -2070 -140 -31 -344 -56 -459 -56 -111 0 -164 -24
-197 -90 -29 -56 -29 -84 0 -140 33 -66 86 -90 197 -90 306 0 692 -95 995
-245 738 -365 1235 -1067 1330 -1881 8 -71 15 -167 15 -214 0 -111 24 -164 90
-197 56 -29 84 -29 140 0 66 33 90 86 90 197 0 302 94 686 240 985 128 261
257 442 465 650 208 208 389 337 650 465 299 146 683 240 985 240 111 0 164
24 198 90 12 24 22 56 22 70 0 42 -42 113 -80 134 -28 17 -62 22 -180 28 -893
44 -1663 548 -2055 1343 -151 306 -245 689 -245 995 0 111 -24 164 -90 198
-24 12 -56 22 -70 22 -14 0 -46 -10 -70 -22z m99 -1130 c232 -610 731 -1152
1326 -1443 83 -40 178 -83 213 -96 34 -13 62 -26 62 -29 0 -3 -39 -20 -88 -39
-215 -84 -475 -236 -682 -401 -349 -276 -665 -701 -821 -1102 -19 -49 -36 -88
-39 -88 -3 0 -16 28 -29 63 -81 216 -247 501 -411 707 -278 350 -701 665
-1102 821 -77 30 -108 49 -79 49 24 0 258 107 366 166 488 271 866 662 1120
1159 34 66 77 159 96 207 19 49 36 88 39 88 3 0 16 -28 29 -62z"/>
<path d="M7290 6858 c-62 -32 -90 -88 -90 -181 0 -167 -43 -409 -105 -586
-244 -701 -868 -1198 -1607 -1280 -54 -6 -128 -11 -165 -11 -93 0 -149 -28
-180 -90 -13 -24 -23 -56 -23 -70 0 -14 10 -46 23 -70 31 -62 87 -90 180 -90
37 0 111 -5 165 -11 739 -82 1363 -579 1607 -1280 62 -177 105 -419 105 -586
0 -93 28 -149 90 -180 56 -29 84 -29 140 0 64 32 90 86 90 189 0 42 7 130 15
195 104 788 679 1431 1450 1619 125 30 302 54 403 54 103 0 157 26 190 90 12
24 22 56 22 70 0 14 -10 46 -22 70 -32 62 -88 90 -181 90 -167 0 -409 43 -586
105 -629 219 -1101 749 -1245 1396 -28 128 -46 274 -46 376 0 93 -28 149 -90
181 -24 12 -56 22 -70 22 -14 0 -46 -10 -70 -22z m104 -1045 c37 -87 126 -248
187 -339 232 -346 578 -636 952 -799 61 -27 84 -45 56 -45 -5 0 -70 -30 -142
-66 -445 -222 -789 -567 -1012 -1012 -36 -71 -65 -135 -65 -141 0 -28 -18 -5
-45 57 -210 488 -649 927 -1137 1137 -38 16 -68 32 -68 35 0 3 30 19 68 35
488 210 927 649 1137 1138 16 37 32 67 35 67 3 0 18 -30 34 -67z"/>
<path d="M4410 4138 c-68 -35 -82 -69 -92 -213 -9 -147 -28 -245 -74 -384
-141 -424 -482 -765 -907 -906 -137 -45 -236 -64 -382 -73 -92 -6 -130 -13
-156 -28 -37 -21 -79 -92 -79 -134 0 -42 42 -113 79 -134 26 -15 64 -22 156
-28 357 -22 666 -156 918 -398 173 -166 298 -361 371 -581 46 -139 65 -237 74
-384 10 -144 24 -178 92 -212 56 -29 84 -29 140 0 68 34 82 68 92 213 22 355
156 665 398 917 258 270 586 422 964 445 93 6 131 13 157 28 37 21 79 92 79
134 0 42 -42 113 -79 134 -26 15 -64 22 -156 28 -373 23 -701 172 -956 435
-245 251 -385 569 -407 927 -6 93 -13 131 -28 157 -21 37 -92 79 -134 79 -14
0 -46 -10 -70 -22z m123 -971 c74 -143 170 -271 307 -407 136 -136 260 -230
406 -306 52 -27 94 -51 94 -54 0 -3 -42 -27 -94 -54 -146 -76 -270 -170 -406
-306 -137 -136 -233 -264 -307 -407 -26 -51 -50 -93 -53 -93 -3 0 -27 42 -53
93 -74 143 -170 271 -307 407 -136 137 -264 233 -407 307 -51 26 -93 50 -93
53 0 3 42 27 93 53 143 74 271 170 407 307 136 136 230 260 306 406 27 52 51
94 54 94 3 0 27 -42 53 -93z"/>
</g>
</svg>
